<svg width="28" height="28" viewBox="0 0 28 28" fill="none" xmlns="http://www.w3.org/2000/svg">
<path d="M15.2373 2.62505C14.9091 2.29697 14.464 2.11267 14 2.11267C13.536 2.11267 13.0909 2.29697 12.7628 2.62505L1.13051 14.2555C1.04915 14.3369 0.984619 14.4335 0.940591 14.5398C0.896563 14.6461 0.873901 14.76 0.873901 14.875C0.873901 14.9901 0.896563 15.104 0.940591 15.2103C0.984619 15.3166 1.04915 15.4132 1.13051 15.4945C1.29481 15.6588 1.51765 15.7512 1.75001 15.7512C1.86506 15.7512 1.97898 15.7285 2.08528 15.6845C2.19157 15.6404 2.28815 15.5759 2.36951 15.4945L3.50001 14.3623V23.625C3.50001 24.3212 3.77657 24.9889 4.26885 25.4812C4.76113 25.9735 5.42881 26.25 6.12501 26.25H21.875C22.5712 26.25 23.2389 25.9735 23.7312 25.4812C24.2234 24.9889 24.5 24.3212 24.5 23.625V14.3623L25.6305 15.4945C25.7948 15.6588 26.0176 15.7512 26.25 15.7512C26.4824 15.7512 26.7052 15.6588 26.8695 15.4945C27.0338 15.3302 27.1261 15.1074 27.1261 14.875C27.1261 14.6427 27.0338 14.4198 26.8695 14.2555L22.75 10.1378V4.37505C22.75 4.14298 22.6578 3.92042 22.4937 3.75633C22.3296 3.59223 22.1071 3.50005 21.875 3.50005H20.125C19.8929 3.50005 19.6704 3.59223 19.5063 3.75633C19.3422 3.92042 19.25 4.14298 19.25 4.37505V6.6378L15.2373 2.62505ZM22.75 12.6123V23.625C22.75 23.8571 22.6578 24.0797 22.4937 24.2438C22.3296 24.4079 22.1071 24.5 21.875 24.5H6.12501C5.89294 24.5 5.67038 24.4079 5.50629 24.2438C5.34219 24.0797 5.25001 23.8571 5.25001 23.625V12.6123L14 3.8623L22.75 12.6123Z" fill="#00FF00"/>
</svg>
