<svg width="30" height="25" viewBox="0 0 30 25" fill="none" xmlns="http://www.w3.org/2000/svg">
<path d="M5.4375 6.33329C5.4375 5.30005 5.84795 4.30913 6.57856 3.57852C7.30917 2.84791 8.30009 2.43746 9.33333 2.43746C10.3666 2.43746 11.3575 2.84791 12.0881 3.57852C12.8187 4.30913 13.2292 5.30005 13.2292 6.33329C13.2292 7.36653 12.8187 8.35745 12.0881 9.08806C11.3575 9.81867 10.3666 10.2291 9.33333 10.2291C8.30009 10.2291 7.30917 9.81867 6.57856 9.08806C5.84795 8.35745 5.4375 7.36653 5.4375 6.33329ZM9.33333 0.666626C7.83044 0.666626 6.3891 1.26365 5.32639 2.32635C4.26369 3.38906 3.66667 4.8304 3.66667 6.33329C3.66667 7.83619 4.26369 9.27752 5.32639 10.3402C6.3891 11.4029 7.83044 12 9.33333 12C10.8362 12 12.2776 11.4029 13.3403 10.3402C14.403 9.27752 15 7.83619 15 6.33329C15 4.8304 14.403 3.38906 13.3403 2.32635C12.2776 1.26365 10.8362 0.666626 9.33333 0.666626ZM19.6042 7.74996C19.6042 7.09244 19.8654 6.46186 20.3303 5.99692C20.7952 5.53199 21.4258 5.27079 22.0833 5.27079C22.7408 5.27079 23.3714 5.53199 23.8364 5.99692C24.3013 6.46186 24.5625 7.09244 24.5625 7.74996C24.5625 8.40747 24.3013 9.03806 23.8364 9.503C23.3714 9.96793 22.7408 10.2291 22.0833 10.2291C21.4258 10.2291 20.7952 9.96793 20.3303 9.503C19.8654 9.03806 19.6042 8.40747 19.6042 7.74996ZM22.0833 3.49996C20.9562 3.49996 19.8752 3.94773 19.0781 4.74476C18.2811 5.54179 17.8333 6.62279 17.8333 7.74996C17.8333 8.87713 18.2811 9.95813 19.0781 10.7552C19.8752 11.5522 20.9562 12 22.0833 12C23.2105 12 24.2915 11.5522 25.0885 10.7552C25.8856 9.95813 26.3333 8.87713 26.3333 7.74996C26.3333 6.62279 25.8856 5.54179 25.0885 4.74476C24.2915 3.94773 23.2105 3.49996 22.0833 3.49996ZM22.0833 22.625C20.542 22.625 19.3053 22.3756 18.3178 21.9719L18.4496 21.8019C18.7995 21.3408 19.068 20.8789 19.2734 20.4412C19.9959 20.6926 20.9139 20.8541 22.0826 20.8541C25.1115 20.8541 26.4552 19.7682 27.0856 18.8488C27.4446 18.3205 27.6695 17.7127 27.7408 17.078C27.7449 17.0365 27.7477 16.995 27.7493 16.9533V16.7812C27.7493 16.2925 27.3526 15.8958 26.8639 15.8958H19.8613C19.7158 15.2411 19.4104 14.6327 18.9723 14.125H26.8646C27.5691 14.125 28.2447 14.4048 28.7428 14.903C29.241 15.4011 29.5208 16.0767 29.5208 16.7812V16.9916L29.5187 17.0525C29.5159 17.1021 29.5116 17.1687 29.5045 17.2501C29.4041 18.1821 29.0754 19.075 28.5476 19.8497C27.5382 21.3195 25.6059 22.625 22.0819 22.625H22.0833ZM2.78125 14.125C2.07677 14.125 1.40114 14.4048 0.902998 14.903C0.404854 15.4011 0.125 16.0767 0.125 16.7812V17.7042L0.127833 17.7729C0.130667 17.8295 0.136333 17.9046 0.14625 17.9981C0.166792 18.1837 0.20575 18.4387 0.28225 18.7419C0.48525 19.5404 0.846562 20.29 1.34475 20.9462C2.58929 22.5867 4.96008 24.0416 9.33333 24.0416C13.7073 24.0416 16.0781 22.5867 17.3212 20.9462C17.8197 20.2898 18.1813 19.54 18.3844 18.7412C18.4609 18.4387 18.4999 18.1837 18.5204 17.9974C18.5311 17.9 18.5382 17.8021 18.5417 17.7042V16.7812C18.5417 16.4324 18.473 16.087 18.3395 15.7647C18.206 15.4424 18.0103 15.1496 17.7637 14.903C17.517 14.6563 17.2242 14.4606 16.9019 14.3272C16.5796 14.1937 16.2342 14.125 15.8854 14.125H2.78125ZM1.89654 17.6836L1.89583 17.661V16.7812C1.89583 16.2925 2.2925 15.8958 2.78125 15.8958H15.8854C16.3742 15.8958 16.7708 16.2925 16.7708 16.7812V17.661L16.7701 17.6836C16.7541 17.8939 16.7199 18.1025 16.6681 18.307C16.5231 18.8757 16.2654 19.4094 15.9102 19.8766C15.073 20.9816 13.2823 22.2708 9.33333 22.2708C5.38438 22.2708 3.59371 20.9816 2.75646 19.8766C2.40133 19.4097 2.1436 18.8761 1.99854 18.3077C1.94672 18.103 1.91259 17.8942 1.89654 17.6836Z" fill="black"/>
</svg>
