<svg width="36" height="36" viewBox="0 0 36 36" fill="none" xmlns="http://www.w3.org/2000/svg">
<path d="M34.5206 17.6583C34.4728 17.5486 33.3028 14.9541 30.69 12.3413C28.2656 9.91969 24.1003 7.03125 18 7.03125C11.8997 7.03125 7.73438 9.91969 5.31001 12.3413C2.6972 14.9541 1.5272 17.5444 1.47938 17.6583C1.43131 17.7663 1.40646 17.8832 1.40646 18.0014C1.40646 18.1196 1.43131 18.2365 1.47938 18.3445C1.5272 18.4528 2.6972 21.0473 5.31001 23.6602C7.73438 26.0817 11.8997 28.9688 18 28.9688C24.1003 28.9688 28.2656 26.0817 30.69 23.6602C33.3028 21.0473 34.4728 18.457 34.5206 18.3445C34.5687 18.2365 34.5936 18.1196 34.5936 18.0014C34.5936 17.8832 34.5687 17.7663 34.5206 17.6583ZM18 27.2812C13.5872 27.2812 9.73407 25.6753 6.5461 22.5098C5.20971 21.1817 4.07884 19.6617 3.19079 18C4.07858 16.3386 5.20949 14.819 6.5461 13.4916C9.73407 10.3247 13.5872 8.71875 18 8.71875C22.4128 8.71875 26.2659 10.3247 29.4539 13.4916C30.7905 14.819 31.9214 16.3386 32.8092 18C31.9134 19.717 27.4219 27.2812 18 27.2812ZM18 11.5312C16.7206 11.5312 15.4699 11.9106 14.4062 12.6214C13.3424 13.3322 12.5133 14.3425 12.0237 15.5245C11.5341 16.7065 11.406 18.0072 11.6556 19.262C11.9052 20.5168 12.5212 21.6694 13.4259 22.5741C14.3306 23.4788 15.4832 24.0949 16.738 24.3445C17.9928 24.5941 19.2935 24.466 20.4755 23.9763C21.6575 23.4867 22.6678 22.6576 23.3786 21.5938C24.0894 20.5301 24.4688 19.2794 24.4688 18C24.4665 16.2851 23.7843 14.641 22.5716 13.4284C21.359 12.2157 19.7149 11.5335 18 11.5312ZM18 22.7812C17.0544 22.7812 16.13 22.5008 15.3437 21.9755C14.5574 21.4501 13.9446 20.7034 13.5827 19.8297C13.2208 18.956 13.1261 17.9947 13.3106 17.0672C13.4951 16.1398 13.9505 15.2878 14.6192 14.6191C15.2878 13.9505 16.1398 13.4951 17.0672 13.3106C17.9947 13.1261 18.9561 13.2208 19.8297 13.5827C20.7034 13.9446 21.4501 14.5574 21.9755 15.3437C22.5008 16.13 22.7813 17.0544 22.7813 18C22.7813 19.2681 22.2775 20.4842 21.3809 21.3809C20.4842 22.2775 19.2681 22.7812 18 22.7812Z" fill="black"/>
</svg>
