<svg width="40" height="40" viewBox="0 0 40 40" fill="none" xmlns="http://www.w3.org/2000/svg">
<path d="M12 6C10.4087 6 8.88258 6.63214 7.75736 7.75736C6.63214 8.88258 6 10.4087 6 12V28C6 29.5913 6.63214 31.1174 7.75736 32.2426C8.88258 33.3679 10.4087 34 12 34H28C29.5913 34 31.1174 33.3679 32.2426 32.2426C33.3679 31.1174 34 29.5913 34 28V12C34 10.4087 33.3679 8.88258 32.2426 7.75736C31.1174 6.63214 29.5913 6 28 6H12ZM32 15.528C30.9011 14.5422 29.4763 13.998 28 14H20C18.4087 14 16.8826 14.6321 15.7574 15.7574C14.6321 16.8826 14 18.4087 14 20V28C14 29.536 14.578 30.94 15.528 32H12C10.9391 32 9.92172 31.5786 9.17157 30.8284C8.42143 30.0783 8 29.0609 8 28V12C8 10.9391 8.42143 9.92172 9.17157 9.17157C9.92172 8.42143 10.9391 8 12 8H28C29.0609 8 30.0783 8.42143 30.8284 9.17157C31.5786 9.92172 32 10.9391 32 12V15.528ZM20 32C18.9391 32 17.9217 31.5786 17.1716 30.8284C16.4214 30.0783 16 29.0609 16 28V20C16 18.9391 16.4214 17.9217 17.1716 17.1716C17.9217 16.4214 18.9391 16 20 16H28C29.0609 16 30.0783 16.4214 30.8284 17.1716C31.5786 17.9217 32 18.9391 32 20V28C32 29.0609 31.5786 30.0783 30.8284 30.8284C30.0783 31.5786 29.0609 32 28 32H20Z" fill="black"/>
</svg>
