<svg width="30" height="30" viewBox="0 0 30 30" fill="none" xmlns="http://www.w3.org/2000/svg">
<path d="M15.0001 29.4762C22.9951 29.4762 29.4763 22.995 29.4763 15C29.4763 7.00501 22.9951 0.523804 15.0001 0.523804C7.00514 0.523804 0.523926 7.00501 0.523926 15C0.523926 22.995 7.00514 29.4762 15.0001 29.4762Z" stroke="black" stroke-linecap="round" stroke-linejoin="round"/>
<path d="M15.0002 18.6191C16.9989 18.6191 18.6192 16.9988 18.6192 15C18.6192 13.0013 16.9989 11.381 15.0002 11.381C13.0014 11.381 11.3811 13.0013 11.3811 15C11.3811 16.9988 13.0014 18.6191 15.0002 18.6191Z" stroke="black" stroke-linecap="round" stroke-linejoin="round"/>
<path d="M15 24.0476C19.9969 24.0476 24.0476 19.9969 24.0476 15C24.0476 10.0031 19.9969 5.95239 15 5.95239C10.0031 5.95239 5.95239 10.0031 5.95239 15C5.95239 19.9969 10.0031 24.0476 15 24.0476Z" stroke="black" stroke-linecap="round" stroke-linejoin="round"/>
</svg>
