<svg width="32" height="32" viewBox="0 0 32 32" fill="none" xmlns="http://www.w3.org/2000/svg">
<path d="M19.3333 3.08663C24.0186 4.29196 27.7066 7.97996 28.9133 12.6666M29.3333 16C29.3333 18.7984 28.4528 21.5259 26.8165 23.7961C25.1803 26.0663 22.8712 27.7641 20.2163 28.6491C17.5615 29.534 14.6956 29.5612 12.0244 28.7268C9.35327 27.8924 7.01237 26.2387 5.33331 24M2.92264 18.6C2.53822 16.6664 2.58735 14.6716 3.06649 12.7593C3.54564 10.847 4.44287 9.06479 5.69359 7.54092C6.94431 6.01706 8.51738 4.7895 10.2995 3.94665C12.0817 3.1038 14.0286 2.66663 16 2.66663" stroke="black" stroke-width="1.5" stroke-linecap="round"/>
</svg>
