<svg width="34" height="34" viewBox="0 0 34 34" fill="none" xmlns="http://www.w3.org/2000/svg">
<path d="M7.08334 5.66663H25.5C26.6272 5.66663 27.7082 6.11439 28.5052 6.91142C29.3022 7.70845 29.75 8.78946 29.75 9.91663V19.8333C29.75 20.9605 29.3022 22.0415 28.5052 22.8385C27.7082 23.6355 26.6272 24.0833 25.5 24.0833H19.125L19.8333 28.3333H21.25V29.75H11.3333V28.3333H12.75L13.4583 24.0833H7.08334C5.95617 24.0833 4.87517 23.6355 4.07814 22.8385C3.28111 22.0415 2.83334 20.9605 2.83334 19.8333V9.91663C2.83334 8.78946 3.28111 7.70845 4.07814 6.91142C4.87517 6.11439 5.95617 5.66663 7.08334 5.66663ZM14.875 24.0833L14.1667 28.3333H18.4167L17.7083 24.0833H14.875ZM7.08334 7.08329C6.3319 7.08329 5.61123 7.3818 5.07987 7.91316C4.54852 8.44451 4.25001 9.16518 4.25001 9.91663V19.8333C4.25001 20.5847 4.54852 21.3054 5.07987 21.8368C5.61123 22.3681 6.3319 22.6666 7.08334 22.6666H25.5C26.2515 22.6666 26.9721 22.3681 27.5035 21.8368C28.0348 21.3054 28.3333 20.5847 28.3333 19.8333V9.91663C28.3333 9.16518 28.0348 8.44451 27.5035 7.91316C26.9721 7.3818 26.2515 7.08329 25.5 7.08329H7.08334Z" fill="black"/>
</svg>
